DBRep_DrawableShape

CASCADE Topology V1, (c) Matra-Datavision
Locations 1
1
              1               0               0               0 
              0               1               0               0 
              0               0               1               0 
Curve2ds 12
1 0 100 1 0 
1 0 100 1 0 
1 0 100 1 0 
1 1.5707963267948966 0 -1 0 
1 1.5707963267948966 0 -1 0 
1 1.5707963267948966 0 -1 0 
1 1.5707963267948966 0 0 1 
1 0 0 0 1 
1 0 0 0 1 
1 1.5707963267948966 0 0 1 
1 1.5707963267948966 0 0 1 
1 0 0 0 1 
Curves 27
1 0 100 100 0 -1 0 
1 3.9999999999999898 100 100 -1 0 0 
2 3.9999999999999898 94 100 0 0 1 1 0 -0 -0 1 0 6
1 10 22 100 0 1 0 
2 22 22 100 0 0 1 -1 0 0 0 -1 0 12
1 94 10 100 -1 0 0 
2 94 4 100 0 0 1 1 0 -0 -0 1 0 6
1 100 0 100 0 1 0 
1 0 0 100 1 0 0 
1 0 100 0 0 -1 0 
1 0 0 0 1 0 0 
1 100 0 0 0 1 0 
2 94 4 0 0 0 -1 0 1 0 1 -0 0 6
1 94 10 0 -1 0 0 
2 22 22 0 0 0 -1 0 -1 0 -1 -0 -0 12
1 10 22 0 0 1 0 
2 3.9999999999999898 94 0 0 0 -1 0 1 0 1 -0 0 6
1 3.9999999999999898 100 0 -1 0 0 
1 0 0 0 0 0 1 
1 0 100 0 0 0 1 
1 3.9999999999999898 100 0 0 0 1 
1 9.9999999999999893 94 0 0 0 1 
1 10 22 0 0 0 1 
1 22 10 0 0 0 1 
1 94 10 0 0 0 1 
1 100 4 0 0 0 1 
1 100 0 0 0 0 1 
Polygon3D 0
PolygonOnTriangulations 54
2 27 1 
p 0.200000002980232 1 0 100 
2 2 4 
p 0.200000002980232 1 0 100 
2 26 27 
p 0.200000002980232 1 0 3.99999999999999 
2 2 4 
p 0.200000002980232 1 0 3.99999999999999 
8 2 11 12 13 14 15 16 10 
p 0.200000002980232 1 0 0.224399475256414 0.448798950512828 0.673198425769241 0.897597901025655 1.12199737628207 1.34639685153848 1.5707963267949 
8 19 20 21 22 23 24 25 26 
p 0.200000002980232 1 0 0.224399475256414 0.448798950512828 0.673198425769241 0.897597901025655 1.12199737628207 1.34639685153848 1.5707963267949 
2 12 19 
p 0.200000002980232 1 0 72 
2 2 4 
p 0.200000002980232 1 0 72 
8 1 2 3 4 5 6 7 8 
p 0.200000002980232 1 0 0.224399475256414 0.448798950512828 0.673198425769241 0.897597901025655 1.12199737628207 1.34639685153848 1.5707963267949 
8 12 13 14 15 16 17 18 11 
p 0.200000002980232 1 0 0.224399475256414 0.448798950512828 0.673198425769241 0.897597901025655 1.12199737628207 1.34639685153848 1.5707963267949 
2 10 11 
p 0.200000002980232 1 0 72 
2 2 4 
p 0.200000002980232 1 0 72 
8 2 11 12 13 14 15 16 10 
p 0.200000002980232 1 0 0.224399475256414 0.448798950512828 0.673198425769241 0.897597901025655 1.12199737628207 1.34639685153848 1.5707963267949 
8 3 4 5 6 7 8 9 10 
p 0.200000002980232 1 0 0.224399475256414 0.448798950512828 0.673198425769241 0.897597901025655 1.12199737628207 1.34639685153848 1.5707963267949 
2 2 3 
p 0.200000002980232 1 0 4 
2 2 4 
p 0.200000002980232 1 0 4 
2 1 2 
p 0.200000002980232 1 0 100 
2 2 4 
p 0.200000002980232 1 0 100 
2 2 27 
p 0.200000002980232 1 0 100 
2 1 3 
p 0.200000002980232 1 0 100 
2 27 26 
p 0.200000002980232 1 0 100 
2 1 3 
p 0.200000002980232 1 0 100 
2 26 25 
p 0.200000002980232 1 0 4 
2 1 3 
p 0.200000002980232 1 0 4 
8 3 4 5 6 7 8 9 1 
p 0.200000002980232 1 0 0.224399475256414 0.448798950512828 0.673198425769241 0.897597901025655 1.12199737628207 1.34639685153848 1.5707963267949 
8 18 19 20 21 22 23 24 25 
p 0.200000002980232 1 0 0.224399475256414 0.448798950512828 0.673198425769241 0.897597901025655 1.12199737628207 1.34639685153848 1.5707963267949 
2 18 11 
p 0.200000002980232 1 0 72 
2 1 3 
p 0.200000002980232 1 0 72 
8 10 11 12 13 14 15 16 9 
p 0.200000002980232 1 0 0.224399475256414 0.448798950512828 0.673198425769241 0.897597901025655 1.12199737628207 1.34639685153848 1.5707963267949 
8 11 12 13 14 15 16 17 10 
p 0.200000002980232 1 0 0.224399475256414 0.448798950512828 0.673198425769241 0.897597901025655 1.12199737628207 1.34639685153848 1.5707963267949 
2 10 9 
p 0.200000002980232 1 0 72 
2 1 3 
p 0.200000002980232 1 0 72 
8 3 4 5 6 7 8 9 1 
p 0.200000002980232 1 0 0.224399475256414 0.448798950512828 0.673198425769241 0.897597901025655 1.12199737628207 1.34639685153848 1.5707963267949 
8 1 3 4 5 6 7 8 9 
p 0.200000002980232 1 0 0.224399475256414 0.448798950512828 0.673198425769241 0.897597901025655 1.12199737628207 1.34639685153848 1.5707963267949 
2 1 2 
p 0.200000002980232 1 0 3.99999999999999 
2 1 3 
p 0.200000002980232 1 0 3.99999999999999 
2 3 4 
p 0.200000002980232 1 0 100 
2 1 2 
p 0.200000002980232 1 0 100 
2 1 2 
p 0.200000002980232 1 0 100 
2 3 4 
p 0.200000002980232 1 0 100 
2 3 10 
p 0.200000002980232 1 0 100 
2 1 2 
p 0.200000002980232 1 0 100 
2 1 2 
p 0.200000002980232 1 0 100 
2 3 4 
p 0.200000002980232 1 0 100 
2 9 1 
p 0.200000002980232 1 0 100 
2 1 2 
p 0.200000002980232 1 0 100 
2 10 8 
p 0.200000002980232 1 0 100 
2 3 4 
p 0.200000002980232 1 0 100 
2 3 10 
p 0.200000002980232 1 0 100 
2 1 2 
p 0.200000002980232 1 0 100 
2 1 2 
p 0.200000002980232 1 0 100 
2 3 4 
p 0.200000002980232 1 0 100 
2 1 2 
p 0.200000002980232 1 0 100 
2 3 4 
p 0.200000002980232 1 0 100 
Surfaces 11
1 -1.0000722726277 -1.0000722726276901 100 0 0 1 1 0 -0 -0 1 0 
1 0 101 -1 -1 0 0 0 -1 0 0 0 1 
1 5 100 -1 0 1 0 -1 0 0 0 -0 1 
2 3.9999999999999898 94 0 0 0 1 1 0 -0 -0 1 0 6
1 10 21 -1 1 0 0 -0 1 0 0 -0 1 
2 22 22 0 0 0 1 -1 0 0 0 -1 0 12
1 95 10 -1 0 1 0 -1 0 0 0 -0 1 
2 94 4 0 0 0 1 1 0 -0 -0 1 0 6
1 100 -1.00000000000001 -1 1 0 0 -0 1 0 0 -0 1 
1 -1 0 -1 0 -1 0 1 0 0 -0 0 1 
1 101.000072272628 -1.0000722726276901 0 0 0 -1 -1 0 0 0 1 0 
Triangulations 11
27 25 1 0.200000002980232
0 0 100 100 0 100 100 4 100 99.8495674730909 5.33512560373789 100 99.4058132074145 6.60330243470535 100 98.6909888948082 7.7409388111524 100 97.7409388111524 8.69098889480818 100 96.6033024347054 9.40581320741451 100 95.3351256037379 9.84956747309094 100 94 10 100 22 10 100 10 22 100 10.3008650538181 19.3297487925242 100 11.188373585171 16.7933951305893 100 12.6180222103836 14.5181223776952 100 14.5181223776952 12.6180222103836 100 16.7933951305893 11.188373585171 100 19.3297487925242 10.3008650538181 100 9.99999999999999 94 100 9.84956747309093 95.3351256037379 100 9.40581320741451 96.6033024347054 100 8.69098889480817 97.7409388111524 100 7.74093881115239 98.6909888948082 100 6.60330243470534 99.4058132074145 100 5.33512560373788 99.8495674730909 100 3.99999999999999 100 100 0 100 100 1.0000722726277 1.00007227262769 101.000072272628 1.00007227262769 101.000072272628 5.00007227262769 100.849639745719 6.33519787636558 100.405885480042 7.60337470733304 99.6910611674359 8.74101108378009 98.7410110837801 9.69106116743587 97.6033747073331 10.4058854800422 96.3351978763656 10.8496397457186 95.0000722726277 11.0000722726277 23.0000722726277 11.0000722726277 11.0000722726277 23.0000722726277 11.3009373264458 20.3298210651519 12.1884458577987 17.793467403217 13.6180944830113 15.5181946503229 15.5181946503229 13.6180944830113 17.793467403217 12.1884458577987 20.3298210651519 11.3009373264458 11.0000722726277 95.0000722726277 10.8496397457186 96.3351978763656 10.4058854800422 97.603374707333 9.69106116743587 98.7410110837801 8.74101108378009 99.6910611674359 7.60337470733304 100.405885480042 6.33519787636558 100.849639745719 5.00007227262769 101.000072272628 1.0000722726277 101.000072272628 16 15 1 17 16 1 14 1 15 18 17 1 13 1 14 11 18 1 12 1 13 2 11 1 27 1 12 19 27 12 26 27 19 10 11 2 3 10 2 20 26 19 23 24 25 22 20 21 22 25 26 22 26 20 22 23 25 6 4 5 7 3 4 7 8 9 7 9 10 7 4 6 7 10 3 
4 2 1 0.200000002980232
0 100 0 0 100 100 0 0 0 0 0 100 1 1 1 101 101 1 101 101 4 2 1 4 1 3 
4 2 1 0.200000002980232
3.99999999999999 100 0 3.99999999999999 100 100 0 100 0 0 100 100 1.00000000000001 1 1.00000000000001 101 5 1 5 101 4 2 1 4 1 3 
16 14 1 0.200000002980232
9.99999999999999 94 0 9.99999999999999 94 100 3.99999999999999 100 0 5.33512560373788 99.8495674730909 0 6.60330243470534 99.4058132074145 0 7.74093881115239 98.6909888948082 0 8.69098889480817 97.7409388111524 0 9.40581320741451 96.6033024347054 0 9.84956747309093 95.3351256037379 0 3.99999999999999 100 100 9.84956747309093 95.3351256037379 100 9.40581320741451 96.6033024347054 100 8.69098889480817 97.7409388111524 100 7.74093881115239 98.6909888948082 100 6.60330243470534 99.4058132074145 100 5.33512560373788 99.8495674730909 100 0 0 0 100 1.5707963267949 0 1.34639685153848 0 1.12199737628207 0 0.897597901025655 0 0.673198425769241 0 0.448798950512828 0 0.224399475256414 0 1.5707963267949 100 0.224399475256414 100 0.448798950512828 100 0.673198425769241 100 0.897597901025655 100 1.12199737628207 100 1.34639685153848 100 11 2 1 11 9 8 11 1 9 12 11 8 13 7 6 13 8 7 13 12 8 14 6 5 14 13 6 15 14 5 16 4 3 16 5 4 16 15 5 10 16 3 
4 2 1 0.200000002980232
10 22 0 10 22 100 9.99999999999999 94 0 9.99999999999999 94 100 1 1 1 101 73 1 73 101 4 2 1 4 1 3 
16 14 1 0.200000002980232
10 22 100 10.3008650538181 19.3297487925242 100 11.188373585171 16.7933951305893 100 12.6180222103836 14.5181223776952 100 14.5181223776952 12.6180222103836 100 16.7933951305893 11.188373585171 100 19.3297487925242 10.3008650538181 100 22 10 100 10 22 0 22 10 0 19.3297487925242 10.3008650538181 0 16.7933951305893 11.188373585171 0 14.5181223776952 12.6180222103836 0 12.6180222103836 14.5181223776952 0 11.188373585171 16.7933951305893 0 10.3008650538181 19.3297487925242 0 0 100 0.224399475256414 100 0.448798950512828 100 0.673198425769241 100 0.897597901025655 100 1.12199737628207 100 1.34639685153848 100 1.5707963267949 100 0 0 1.5707963267949 0 1.34639685153848 0 1.12199737628207 0 0.897597901025655 0 0.673198425769241 0 0.448798950512828 0 0.224399475256414 0 2 1 9 2 9 16 3 16 15 3 2 16 4 15 14 4 3 15 5 14 13 5 4 14 6 13 12 6 5 13 7 11 10 7 12 11 7 6 12 8 7 10 
4 2 1 0.200000002980232
94 10 0 94 10 100 22 10 0 22 10 100 1 1 1 101 73 1 73 101 4 2 1 4 1 3 
16 14 1 0.200000002980232
100 4 0 100 4 100 94 10 0 95.3351256037379 9.84956747309094 0 96.6033024347054 9.40581320741451 0 97.7409388111524 8.69098889480818 0 98.6909888948082 7.7409388111524 0 99.4058132074145 6.60330243470535 0 99.8495674730909 5.33512560373789 0 94 10 100 99.8495674730909 5.33512560373789 100 99.4058132074145 6.60330243470535 100 98.6909888948082 7.7409388111524 100 97.7409388111524 8.69098889480818 100 96.6033024347054 9.40581320741451 100 95.3351256037379 9.84956747309094 100 0 0 0 100 1.5707963267949 0 1.34639685153848 0 1.12199737628207 0 0.897597901025655 0 0.673198425769241 0 0.448798950512828 0 0.224399475256414 0 1.5707963267949 100 0.224399475256414 100 0.448798950512828 100 0.673198425769241 100 0.897597901025655 100 1.12199737628207 100 1.34639685153848 100 11 2 1 11 9 8 11 1 9 12 11 8 13 7 6 13 8 7 13 12 8 14 6 5 14 13 6 15 14 5 16 4 3 16 5 4 16 15 5 10 16 3 
4 2 1 0.200000002980232
100 0 0 100 0 100 100 4 0 100 4 100 1.00000000000001 1 1.00000000000001 101 5.00000000000001 1 5.00000000000001 101 4 2 1 4 1 3 
4 2 1 0.200000002980232
0 0 0 0 0 100 100 0 0 100 0 100 1 1 1 101 101 1 101 101 4 2 1 4 1 3 
27 25 1 0.200000002980232
3.99999999999999 100 0 0 100 0 5.33512560373788 99.8495674730909 0 6.60330243470534 99.4058132074145 0 7.74093881115239 98.6909888948082 0 8.69098889480817 97.7409388111524 0 9.40581320741451 96.6033024347054 0 9.84956747309093 95.3351256037379 0 9.99999999999999 94 0 10 22 0 22 10 0 19.3297487925242 10.3008650538181 0 16.7933951305893 11.188373585171 0 14.5181223776952 12.6180222103836 0 12.6180222103836 14.5181223776952 0 11.188373585171 16.7933951305893 0 10.3008650538181 19.3297487925242 0 94 10 0 95.3351256037379 9.84956747309094 0 96.6033024347054 9.40581320741451 0 97.7409388111524 8.69098889480818 0 98.6909888948082 7.7409388111524 0 99.4058132074145 6.60330243470535 0 99.8495674730909 5.33512560373789 0 100 4 0 100 0 0 0 0 0 97.000072272628 101.000072272628 101.000072272628 101.000072272628 95.6649466688901 100.849639745719 94.3967698379227 100.405885480042 93.2591334614756 99.6910611674359 92.3090833778198 98.7410110837801 91.5942590652135 97.603374707333 91.1505047995371 96.3351978763656 91.000072272628 95.0000722726277 91.000072272628 23.0000722726277 79.000072272628 11.0000722726277 81.6703234801038 11.3009373264458 84.2066771420387 12.1884458577987 86.4819498949328 13.6180944830113 88.3820500622444 15.5181946503229 89.811698687457 17.793467403217 90.6992072188099 20.3298210651519 7.000072272628 11.0000722726277 5.66494666889012 10.8496397457186 4.39676983792265 10.4058854800422 3.2591334614756 9.69106116743587 2.30908337781982 8.74101108378009 1.59425906521349 7.60337470733304 1.15050479953706 6.33519787636558 1.000072272628 5.00007227262769 1.000072272628 1.00007227262769 101.000072272628 1.00007227262769 22 23 24 20 21 22 20 24 25 20 22 24 18 19 20 18 25 26 18 20 25 11 18 26 27 12 11 27 13 12 27 14 13 27 11 26 15 14 27 16 15 27 17 16 27 10 17 27 7 8 9 5 6 7 3 4 5 3 5 7 1 7 9 1 3 7 2 9 10 2 10 27 2 1 9 

TShapes 70
Ve
1e-07
0 100 100
0 0

0101101
*
Ve
1e-07
0 0 100
0 0

0101101
*
Ed
 1e-07 1 1 0
1  1 0 0 100
4 C0 1 0 2 0
6  1 1 0
6  2 2 0
0

0101000
+70 0 -69 0 *
Ve
1e-07
3.99999999999999 100 100
0 0

0101101
*
Ed
 1e-07 1 1 0
1  2 0 0 3.99999999999999
4 C0 1 0 3 0
6  3 1 0
6  4 3 0
0

0101000
+67 0 -70 0 *
Ve
1e-07
9.99999999999999 94 100
0 0

0101101
*
Ed
 1e-07 1 1 0
1  3 0 0 1.5707963267949
2  1 4 0 0 1.5707963267949
4 C0 1 0 4 0
6  5 4 0
6  6 1 0
0

0101000
+65 0 -67 0 *
Ve
1e-07
10 22 100
0 0

0101101
*
Ed
 1e-07 1 1 0
1  4 0 0 72
4 C0 1 0 5 0
6  7 1 0
6  8 5 0
0

0101000
+63 0 -65 0 *
Ve
1e-07
22 10 100
0 0

0101101
*
Ed
 1e-07 1 1 0
1  5 0 0 1.5707963267949
2  2 6 0 0 1.5707963267949
4 C0 1 0 6 0
6  9 6 0
6  10 1 0
0

0101000
+63 0 -61 0 *
Ve
1e-07
94 10 100
0 0

0101101
*
Ed
 1e-07 1 1 0
1  6 0 0 72
4 C0 1 0 7 0
6  11 1 0
6  12 7 0
0

0101000
+59 0 -61 0 *
Ve
1e-07
100 4 100
0 0

0101101
*
Ed
 1e-07 1 1 0
1  7 0 0 1.5707963267949
2  3 8 0 0 1.5707963267949
4 C0 1 0 8 0
6  13 8 0
6  14 1 0
0

0101000
+57 0 -59 0 *
Ve
1e-07
100 0 100
0 0

0101101
*
Ed
 1e-07 1 1 0
1  8 0 0 4
4 C0 1 0 9 0
6  15 1 0
6  16 9 0
0

0101000
+55 0 -57 0 *
Ed
 1e-07 1 1 0
1  9 0 0 100
4 C0 1 0 10 0
6  17 1 0
6  18 10 0
0

0101000
+69 0 -55 0 *
Wi

0101100
-68 0 -66 0 -64 0 -62 0 +60 0 -58 0 -56 0 -54 0 -53 0 *
Fa
0  1e-07 1 0
2  1
0111000
-52 0 *
Ve
1e-07
0 100 0
0 0

0101101
*
Ve
1e-07
0 0 0
0 0

0101101
*
Ed
 1e-07 1 1 0
1  10 0 0 100
4 C0 11 0 2 0
6  19 11 0
6  20 2 0
0

0101000
+50 0 -49 0 *
Ve
1e-07
100 0 0
0 0

0101101
*
Ed
 1e-07 1 1 0
1  11 0 0 100
4 C0 11 0 10 0
6  21 11 0
6  22 10 0
0

0101000
+49 0 -47 0 *
Ve
1e-07
100 4 0
0 0

0101101
*
Ed
 1e-07 1 1 0
1  12 0 0 4
4 C0 11 0 9 0
6  23 11 0
6  24 9 0
0

0101000
+47 0 -45 0 *
Ve
1e-07
94 10 0
0 0

0101101
*
Ed
 1e-07 1 1 0
1  13 0 0 1.5707963267949
2  4 8 0 0 1.5707963267949
4 C0 11 0 8 0
6  25 8 0
6  26 11 0
0

0101000
+43 0 -45 0 *
Ve
1e-07
22 10 0
0 0

0101101
*
Ed
 1e-07 1 1 0
1  14 0 0 72
4 C0 11 0 7 0
6  27 11 0
6  28 7 0
0

0101000
+43 0 -41 0 *
Ve
1e-07
10 22 0
0 0

0101101
*
Ed
 1e-07 1 1 0
1  15 0 0 1.5707963267949
2  5 6 0 0 1.5707963267949
4 C0 11 0 6 0
6  29 6 0
6  30 11 0
0

0101000
+41 0 -39 0 *
Ve
1e-07
9.99999999999999 94 0
0 0

0101101
*
Ed
 1e-07 1 1 0
1  16 0 0 72
4 C0 11 0 5 0
6  31 11 0
6  32 5 0
0

0101000
+39 0 -37 0 *
Ve
1e-07
3.99999999999999 100 0
0 0

0101101
*
Ed
 1e-07 1 1 0
1  17 0 0 1.5707963267949
2  6 4 0 0 1.5707963267949
4 C0 11 0 4 0
6  33 4 0
6  34 11 0
0

0101000
+35 0 -37 0 *
Ed
 1e-07 1 1 0
1  18 0 0 3.99999999999999
4 C0 11 0 3 0
6  35 11 0
6  36 3 0
0

0101000
+35 0 -50 0 *
Wi

0101100
+48 0 +46 0 +44 0 -42 0 +40 0 +38 0 +36 0 -34 0 +33 0 *
Fa
0  1e-07 11 0
2  11
0111000
-32 0 *
Ed
 1e-07 1 1 0
1  19 0 0 100
4 C0 2 0 10 0
6  37 2 0
6  38 10 0
0

0101000
+49 0 -69 0 *
Ed
 1e-07 1 1 0
1  20 0 0 100
4 C0 2 0 3 0
6  39 2 0
6  40 3 0
0

0101000
+50 0 -70 0 *
Wi

0101100
+68 0 -30 0 -48 0 +29 0 *
Fa
0  1e-07 2 0
2  2
0111000
-28 0 *
Ed
 1e-07 1 1 0
1  21 0 0 100
2  7 4 0 0 100
4 G1 3 0 4 0
6  41 4 0
6  42 3 0
0

0101000
+35 0 -67 0 *
Wi

0101100
+66 0 -29 0 -33 0 +26 0 *
Fa
0  1e-07 3 0
2  3
0111000
-25 0 *
Ed
 1e-07 1 1 0
1  22 0 0 100
2  8 4 0 0 100
4 G1 4 0 5 0
6  43 4 0
6  44 5 0
0

0101000
+37 0 -65 0 *
Wi

0101100
-23 0 -34 0 +26 0 -64 0 *
Fa
0  1e-07 4 0
2  4
0111000
+22 0 *
Ed
 1e-07 1 1 0
1  23 0 0 100
2  9 6 0 0 100
4 G1 5 0 6 0
6  45 6 0
6  46 5 0
0

0101000
+39 0 -63 0 *
Wi

0101100
+62 0 -23 0 -36 0 +20 0 *
Fa
0  1e-07 5 0
2  5
0111000
-19 0 *
Ed
 1e-07 1 1 0
1  24 0 0 100
2  10 6 0 0 100
4 G1 6 0 7 0
6  47 6 0
6  48 7 0
0

0101000
+41 0 -61 0 *
Wi

0101100
-60 0 -20 0 -38 0 +17 0 *
Fa
0  1e-07 6 0
2  6
0111000
+16 0 *
Ed
 1e-07 1 1 0
1  25 0 0 100
2  11 8 0 0 100
4 G1 7 0 8 0
6  49 8 0
6  50 7 0
0

0101000
+43 0 -59 0 *
Wi

0101100
+58 0 -17 0 -40 0 +14 0 *
Fa
0  1e-07 7 0
2  7
0111000
-13 0 *
Ed
 1e-07 1 1 0
1  26 0 0 100
2  12 8 0 0 100
4 G1 8 0 9 0
6  51 8 0
6  52 9 0
0

0101000
+45 0 -57 0 *
Wi

0101100
-11 0 -42 0 +14 0 -56 0 *
Fa
0  1e-07 8 0
2  8
0111000
+10 0 *
Ed
 1e-07 1 1 0
1  27 0 0 100
4 C0 9 0 10 0
6  53 9 0
6  54 10 0
0

0101000
+47 0 -55 0 *
Wi

0101100
+54 0 -11 0 -44 0 +8 0 *
Fa
0  1e-07 9 0
2  9
0111000
-7 0 *
Wi

0101100
+53 0 -8 0 -46 0 +30 0 *
Fa
0  1e-07 10 0
2  10
0111000
-5 0 *
Sh

0101100
+51 0 +31 0 +27 0 +24 0 +21 0 +18 0 -15 0 +12 0 +9 0 +6 0 
+4 0 *
So

0100000
+3 0 *
Co

1100000
+2 1 *

+1 0 